<mxfile host="Electron" modified="2024-03-02T17:46:13.711Z" agent="Mozilla/5.0 (Windows NT 10.0; Win64; x64) AppleWebKit/537.36 (KHTML, like Gecko) draw.io/23.1.5 Chrome/120.0.6099.109 Electron/28.1.0 Safari/537.36" etag="84UyF-Q4KuRNWT3HHlzM" version="23.1.5" type="device">
  <diagram name="Page-1" id="E6uEoGzsUQtZvQhI-fI-">
    <mxGraphModel dx="1434" dy="836" grid="1" gridSize="10" guides="1" tooltips="1" connect="1" arrows="1" fold="1" page="1" pageScale="1" pageWidth="3300" pageHeight="4681" math="0" shadow="0">
      <root>
        <mxCell id="0" />
        <mxCell id="1" parent="0" />
        <mxCell id="mzZ4RESGsa3rJltDZsZV-32" value="Description" style="ellipse;whiteSpace=wrap;html=1;align=center;" parent="1" vertex="1">
          <mxGeometry x="470" y="120" width="100" height="40" as="geometry" />
        </mxCell>
        <mxCell id="mzZ4RESGsa3rJltDZsZV-34" value="" style="endArrow=none;html=1;rounded=0;entryX=0.5;entryY=0;entryDx=0;entryDy=0;exitX=0.5;exitY=1;exitDx=0;exitDy=0;" parent="1" source="mzZ4RESGsa3rJltDZsZV-32" edge="1">
          <mxGeometry relative="1" as="geometry">
            <mxPoint x="450" y="260" as="sourcePoint" />
            <mxPoint x="520" y="200" as="targetPoint" />
          </mxGeometry>
        </mxCell>
        <mxCell id="mzZ4RESGsa3rJltDZsZV-35" value="" style="endArrow=none;html=1;rounded=0;entryX=0.5;entryY=1;entryDx=0;entryDy=0;" parent="1" edge="1">
          <mxGeometry relative="1" as="geometry">
            <mxPoint x="570" y="220" as="sourcePoint" />
            <mxPoint x="640" y="180" as="targetPoint" />
          </mxGeometry>
        </mxCell>
        <mxCell id="mzZ4RESGsa3rJltDZsZV-36" value="" style="endArrow=none;html=1;rounded=0;entryX=0.472;entryY=-0.121;entryDx=0;entryDy=0;entryPerimeter=0;" parent="1" edge="1">
          <mxGeometry relative="1" as="geometry">
            <mxPoint x="570" y="224.42000000000002" as="sourcePoint" />
            <mxPoint x="637.2" y="259.99999999999994" as="targetPoint" />
          </mxGeometry>
        </mxCell>
        <mxCell id="mzZ4RESGsa3rJltDZsZV-37" value="Living areas" style="whiteSpace=wrap;html=1;align=center;" parent="1" vertex="1">
          <mxGeometry x="514" y="375" width="100" height="40" as="geometry" />
        </mxCell>
        <mxCell id="mzZ4RESGsa3rJltDZsZV-38" value="Living styles" style="whiteSpace=wrap;html=1;align=center;" parent="1" vertex="1">
          <mxGeometry x="330" y="375" width="100" height="40" as="geometry" />
        </mxCell>
        <mxCell id="mzZ4RESGsa3rJltDZsZV-43" value="Lives" style="shape=rhombus;perimeter=rhombusPerimeter;whiteSpace=wrap;html=1;align=center;" parent="1" vertex="1">
          <mxGeometry x="530" y="300" width="70" height="50" as="geometry" />
        </mxCell>
        <mxCell id="mzZ4RESGsa3rJltDZsZV-44" value="has" style="shape=rhombus;perimeter=rhombusPerimeter;whiteSpace=wrap;html=1;align=center;" parent="1" vertex="1">
          <mxGeometry x="440" y="300" width="74" height="45" as="geometry" />
        </mxCell>
        <mxCell id="mzZ4RESGsa3rJltDZsZV-46" value="" style="endArrow=none;html=1;rounded=0;exitX=0.5;exitY=0;exitDx=0;exitDy=0;entryX=0.5;entryY=1;entryDx=0;entryDy=0;" parent="1" source="mzZ4RESGsa3rJltDZsZV-37" target="mzZ4RESGsa3rJltDZsZV-43" edge="1">
          <mxGeometry relative="1" as="geometry">
            <mxPoint x="550" y="370" as="sourcePoint" />
            <mxPoint x="710" y="370" as="targetPoint" />
          </mxGeometry>
        </mxCell>
        <mxCell id="mzZ4RESGsa3rJltDZsZV-47" value="(0,N)" style="resizable=0;html=1;whiteSpace=wrap;align=right;verticalAlign=bottom;" parent="mzZ4RESGsa3rJltDZsZV-46" connectable="0" vertex="1">
          <mxGeometry x="1" relative="1" as="geometry">
            <mxPoint x="35" y="22" as="offset" />
          </mxGeometry>
        </mxCell>
        <mxCell id="mzZ4RESGsa3rJltDZsZV-52" value="" style="endArrow=none;html=1;rounded=0;exitX=0.5;exitY=1;exitDx=0;exitDy=0;entryX=0.5;entryY=0;entryDx=0;entryDy=0;" parent="1" target="mzZ4RESGsa3rJltDZsZV-43" edge="1">
          <mxGeometry relative="1" as="geometry">
            <mxPoint x="520" y="240" as="sourcePoint" />
            <mxPoint x="510" y="290" as="targetPoint" />
          </mxGeometry>
        </mxCell>
        <mxCell id="mzZ4RESGsa3rJltDZsZV-53" value="(0,M)" style="resizable=0;html=1;whiteSpace=wrap;align=right;verticalAlign=bottom;" parent="mzZ4RESGsa3rJltDZsZV-52" connectable="0" vertex="1">
          <mxGeometry x="1" relative="1" as="geometry">
            <mxPoint x="25" as="offset" />
          </mxGeometry>
        </mxCell>
        <mxCell id="mzZ4RESGsa3rJltDZsZV-54" value="" style="endArrow=none;html=1;rounded=0;exitX=0.5;exitY=1;exitDx=0;exitDy=0;entryX=0.5;entryY=0;entryDx=0;entryDy=0;" parent="1" source="mzZ4RESGsa3rJltDZsZV-44" target="mzZ4RESGsa3rJltDZsZV-38" edge="1">
          <mxGeometry relative="1" as="geometry">
            <mxPoint x="360" y="370" as="sourcePoint" />
            <mxPoint x="520" y="370" as="targetPoint" />
          </mxGeometry>
        </mxCell>
        <mxCell id="mzZ4RESGsa3rJltDZsZV-55" value="(0,1)" style="resizable=0;html=1;whiteSpace=wrap;align=right;verticalAlign=bottom;" parent="mzZ4RESGsa3rJltDZsZV-54" connectable="0" vertex="1">
          <mxGeometry x="1" relative="1" as="geometry">
            <mxPoint x="34" y="-20" as="offset" />
          </mxGeometry>
        </mxCell>
        <mxCell id="mzZ4RESGsa3rJltDZsZV-56" value="" style="endArrow=none;html=1;rounded=0;exitX=0.5;exitY=0;exitDx=0;exitDy=0;" parent="1" source="mzZ4RESGsa3rJltDZsZV-44" edge="1">
          <mxGeometry relative="1" as="geometry">
            <mxPoint x="480" y="270" as="sourcePoint" />
            <mxPoint x="520" y="240" as="targetPoint" />
          </mxGeometry>
        </mxCell>
        <mxCell id="mzZ4RESGsa3rJltDZsZV-57" value="(0,N)" style="resizable=0;html=1;whiteSpace=wrap;align=right;verticalAlign=bottom;" parent="mzZ4RESGsa3rJltDZsZV-56" connectable="0" vertex="1">
          <mxGeometry x="1" relative="1" as="geometry">
            <mxPoint x="-40" y="60" as="offset" />
          </mxGeometry>
        </mxCell>
        <mxCell id="mzZ4RESGsa3rJltDZsZV-62" value="Stats baseline" style="ellipse;shape=doubleEllipse;margin=3;whiteSpace=wrap;html=1;align=center;" parent="1" vertex="1">
          <mxGeometry x="710" y="352.5" width="100" height="40" as="geometry" />
        </mxCell>
        <mxCell id="mzZ4RESGsa3rJltDZsZV-69" value="" style="endArrow=none;html=1;rounded=0;" parent="1" edge="1">
          <mxGeometry relative="1" as="geometry">
            <mxPoint x="130" y="60" as="sourcePoint" />
            <mxPoint x="190" y="60" as="targetPoint" />
          </mxGeometry>
        </mxCell>
        <mxCell id="mzZ4RESGsa3rJltDZsZV-70" value="Morbus" style="whiteSpace=wrap;html=1;align=center;" parent="1" vertex="1">
          <mxGeometry x="190" y="40" width="100" height="40" as="geometry" />
        </mxCell>
        <mxCell id="mzZ4RESGsa3rJltDZsZV-71" value="can Infect" style="shape=rhombus;perimeter=rhombusPerimeter;whiteSpace=wrap;html=1;align=center;" parent="1" vertex="1">
          <mxGeometry x="310" y="120" width="120" height="60" as="geometry" />
        </mxCell>
        <mxCell id="mzZ4RESGsa3rJltDZsZV-72" value="" style="endArrow=none;html=1;rounded=0;exitX=1;exitY=1;exitDx=0;exitDy=0;entryX=0;entryY=0.5;entryDx=0;entryDy=0;" parent="1" source="mzZ4RESGsa3rJltDZsZV-71" target="7UcNqY1riqauI8HsNrBE-2" edge="1">
          <mxGeometry relative="1" as="geometry">
            <mxPoint x="440" y="190" as="sourcePoint" />
            <mxPoint x="470" y="200" as="targetPoint" />
          </mxGeometry>
        </mxCell>
        <mxCell id="mzZ4RESGsa3rJltDZsZV-73" value="(0,N)" style="resizable=0;html=1;whiteSpace=wrap;align=right;verticalAlign=bottom;" parent="mzZ4RESGsa3rJltDZsZV-72" connectable="0" vertex="1">
          <mxGeometry x="1" relative="1" as="geometry">
            <mxPoint y="-30" as="offset" />
          </mxGeometry>
        </mxCell>
        <mxCell id="mzZ4RESGsa3rJltDZsZV-74" value="" style="endArrow=none;html=1;rounded=0;entryX=1;entryY=0.5;entryDx=0;entryDy=0;exitX=0;exitY=0;exitDx=0;exitDy=0;" parent="1" source="mzZ4RESGsa3rJltDZsZV-71" target="mzZ4RESGsa3rJltDZsZV-70" edge="1">
          <mxGeometry relative="1" as="geometry">
            <mxPoint x="340" y="130" as="sourcePoint" />
            <mxPoint x="299.9999999999999" y="65" as="targetPoint" />
          </mxGeometry>
        </mxCell>
        <mxCell id="mzZ4RESGsa3rJltDZsZV-75" value="(0,M)" style="resizable=0;html=1;whiteSpace=wrap;align=right;verticalAlign=bottom;" parent="mzZ4RESGsa3rJltDZsZV-74" connectable="0" vertex="1">
          <mxGeometry x="1" relative="1" as="geometry">
            <mxPoint x="70" y="60" as="offset" />
          </mxGeometry>
        </mxCell>
        <mxCell id="mzZ4RESGsa3rJltDZsZV-78" value="Symptoms" style="ellipse;whiteSpace=wrap;html=1;align=center;" parent="1" vertex="1">
          <mxGeometry x="30" y="40" width="100" height="40" as="geometry" />
        </mxCell>
        <mxCell id="mzZ4RESGsa3rJltDZsZV-82" value="" style="endArrow=none;html=1;rounded=0;exitX=1;exitY=0;exitDx=0;exitDy=0;entryX=0;entryY=0.5;entryDx=0;entryDy=0;" parent="1" source="mzZ4RESGsa3rJltDZsZV-70" target="mzZ4RESGsa3rJltDZsZV-83" edge="1">
          <mxGeometry relative="1" as="geometry">
            <mxPoint x="330" y="30" as="sourcePoint" />
            <mxPoint x="430" y="40" as="targetPoint" />
          </mxGeometry>
        </mxCell>
        <mxCell id="mzZ4RESGsa3rJltDZsZV-83" value="Name" style="ellipse;whiteSpace=wrap;html=1;align=center;fontStyle=4;" parent="1" vertex="1">
          <mxGeometry x="440" y="20" width="100" height="40" as="geometry" />
        </mxCell>
        <mxCell id="mzZ4RESGsa3rJltDZsZV-84" value="MorbusID" style="ellipse;whiteSpace=wrap;html=1;align=center;fontStyle=4;" parent="1" vertex="1">
          <mxGeometry x="30" y="90" width="100" height="40" as="geometry" />
        </mxCell>
        <mxCell id="mzZ4RESGsa3rJltDZsZV-85" value="Description" style="ellipse;whiteSpace=wrap;html=1;align=center;" parent="1" vertex="1">
          <mxGeometry x="370" y="70" width="100" height="40" as="geometry" />
        </mxCell>
        <mxCell id="mzZ4RESGsa3rJltDZsZV-86" value="" style="endArrow=none;html=1;rounded=0;exitX=1;exitY=0;exitDx=0;exitDy=0;entryX=0;entryY=0;entryDx=0;entryDy=0;" parent="1" source="mzZ4RESGsa3rJltDZsZV-70" target="mzZ4RESGsa3rJltDZsZV-85" edge="1">
          <mxGeometry relative="1" as="geometry">
            <mxPoint x="300" y="59" as="sourcePoint" />
            <mxPoint x="450" y="59" as="targetPoint" />
          </mxGeometry>
        </mxCell>
        <mxCell id="mzZ4RESGsa3rJltDZsZV-87" value="" style="endArrow=none;html=1;rounded=0;exitX=1;exitY=0.5;exitDx=0;exitDy=0;entryX=0;entryY=0.5;entryDx=0;entryDy=0;" parent="1" source="mzZ4RESGsa3rJltDZsZV-84" target="mzZ4RESGsa3rJltDZsZV-70" edge="1">
          <mxGeometry relative="1" as="geometry">
            <mxPoint x="140" y="70" as="sourcePoint" />
            <mxPoint x="200" y="70" as="targetPoint" />
          </mxGeometry>
        </mxCell>
        <mxCell id="mzZ4RESGsa3rJltDZsZV-88" value="Organism" style="swimlane;childLayout=stackLayout;horizontal=1;startSize=50;horizontalStack=0;rounded=1;fontSize=14;fontStyle=0;strokeWidth=2;resizeParent=0;resizeLast=1;shadow=0;dashed=0;align=center;arcSize=4;whiteSpace=wrap;html=1;" parent="1" vertex="1">
          <mxGeometry x="432" y="660" width="228" height="210" as="geometry" />
        </mxCell>
        <mxCell id="mzZ4RESGsa3rJltDZsZV-90" value="" style="shape=table;startSize=0;container=1;collapsible=1;childLayout=tableLayout;fixedRows=1;rowLines=0;fontStyle=0;align=center;resizeLast=1;strokeColor=none;fillColor=none;collapsible=0;" parent="mzZ4RESGsa3rJltDZsZV-88" vertex="1">
          <mxGeometry y="50" width="228" height="30" as="geometry" />
        </mxCell>
        <mxCell id="mzZ4RESGsa3rJltDZsZV-91" value="" style="shape=tableRow;horizontal=0;startSize=0;swimlaneHead=0;swimlaneBody=0;fillColor=none;collapsible=0;dropTarget=0;points=[[0,0.5],[1,0.5]];portConstraint=eastwest;top=0;left=0;right=0;bottom=1;" parent="mzZ4RESGsa3rJltDZsZV-90" vertex="1">
          <mxGeometry width="228" height="30" as="geometry" />
        </mxCell>
        <mxCell id="mzZ4RESGsa3rJltDZsZV-92" value="PK" style="shape=partialRectangle;connectable=0;fillColor=none;top=0;left=0;bottom=0;right=0;fontStyle=1;overflow=hidden;whiteSpace=wrap;html=1;" parent="mzZ4RESGsa3rJltDZsZV-91" vertex="1">
          <mxGeometry width="30" height="30" as="geometry">
            <mxRectangle width="30" height="30" as="alternateBounds" />
          </mxGeometry>
        </mxCell>
        <mxCell id="mzZ4RESGsa3rJltDZsZV-93" value="OrgID, INT" style="shape=partialRectangle;connectable=0;fillColor=none;top=0;left=0;bottom=0;right=0;align=left;spacingLeft=6;fontStyle=5;overflow=hidden;whiteSpace=wrap;html=1;" parent="mzZ4RESGsa3rJltDZsZV-91" vertex="1">
          <mxGeometry x="30" width="198" height="30" as="geometry">
            <mxRectangle width="198" height="30" as="alternateBounds" />
          </mxGeometry>
        </mxCell>
        <mxCell id="mzZ4RESGsa3rJltDZsZV-89" value="&lt;u&gt;Name, CHAR(40) UNIQUE NOT NULL&lt;br&gt;CHECK(LENGTH(Name) &amp;lt;= 40)&lt;/u&gt;&lt;br&gt;&lt;br&gt;Descripton, VARCHAR(65535)&lt;br&gt;FK OrgTypeID, INT NOT NULL&lt;br&gt;FK LivingStyleID, INT&amp;nbsp;&amp;nbsp;&lt;br&gt;&lt;div&gt;FK SoulID, INT NOT NULL&lt;br&gt;&lt;/div&gt;" style="align=left;strokeColor=none;fillColor=none;spacingLeft=4;fontSize=12;verticalAlign=top;resizable=0;rotatable=0;part=1;html=1;" parent="mzZ4RESGsa3rJltDZsZV-88" vertex="1">
          <mxGeometry y="80" width="228" height="130" as="geometry" />
        </mxCell>
        <mxCell id="mzZ4RESGsa3rJltDZsZV-103" value="Name" style="ellipse;whiteSpace=wrap;html=1;align=center;fontStyle=4;" parent="1" vertex="1">
          <mxGeometry x="180" y="447.5" width="100" height="40" as="geometry" />
        </mxCell>
        <mxCell id="mzZ4RESGsa3rJltDZsZV-104" value="Description" style="ellipse;whiteSpace=wrap;html=1;align=center;" parent="1" vertex="1">
          <mxGeometry x="90" y="332.5" width="100" height="40" as="geometry" />
        </mxCell>
        <mxCell id="mzZ4RESGsa3rJltDZsZV-105" value="LivingStyleID" style="ellipse;whiteSpace=wrap;html=1;align=center;fontStyle=4;" parent="1" vertex="1">
          <mxGeometry x="120" y="392.5" width="100" height="40" as="geometry" />
        </mxCell>
        <mxCell id="mzZ4RESGsa3rJltDZsZV-106" value="Name" style="ellipse;whiteSpace=wrap;html=1;align=center;fontStyle=4;" parent="1" vertex="1">
          <mxGeometry x="427" y="440" width="100" height="40" as="geometry" />
        </mxCell>
        <mxCell id="mzZ4RESGsa3rJltDZsZV-107" value="Description" style="ellipse;whiteSpace=wrap;html=1;align=center;" parent="1" vertex="1">
          <mxGeometry x="540" y="450" width="100" height="40" as="geometry" />
        </mxCell>
        <mxCell id="mzZ4RESGsa3rJltDZsZV-108" value="LivingAreaID" style="ellipse;whiteSpace=wrap;html=1;align=center;fontStyle=4;" parent="1" vertex="1">
          <mxGeometry x="630" y="420" width="100" height="40" as="geometry" />
        </mxCell>
        <mxCell id="mzZ4RESGsa3rJltDZsZV-109" value="" style="endArrow=none;html=1;rounded=0;exitX=0.5;exitY=1;exitDx=0;exitDy=0;entryX=0;entryY=0.5;entryDx=0;entryDy=0;" parent="1" source="mzZ4RESGsa3rJltDZsZV-37" target="mzZ4RESGsa3rJltDZsZV-108" edge="1">
          <mxGeometry relative="1" as="geometry">
            <mxPoint x="590" y="440" as="sourcePoint" />
            <mxPoint x="750" y="440" as="targetPoint" />
          </mxGeometry>
        </mxCell>
        <mxCell id="mzZ4RESGsa3rJltDZsZV-110" value="" style="endArrow=none;html=1;rounded=0;entryX=0.5;entryY=0;entryDx=0;entryDy=0;exitX=0.5;exitY=1;exitDx=0;exitDy=0;" parent="1" source="mzZ4RESGsa3rJltDZsZV-37" target="mzZ4RESGsa3rJltDZsZV-107" edge="1">
          <mxGeometry relative="1" as="geometry">
            <mxPoint x="600" y="430" as="sourcePoint" />
            <mxPoint x="680" y="500" as="targetPoint" />
          </mxGeometry>
        </mxCell>
        <mxCell id="mzZ4RESGsa3rJltDZsZV-111" value="" style="endArrow=none;html=1;rounded=0;entryX=0.5;entryY=0;entryDx=0;entryDy=0;exitX=0.5;exitY=1;exitDx=0;exitDy=0;" parent="1" source="mzZ4RESGsa3rJltDZsZV-37" target="mzZ4RESGsa3rJltDZsZV-106" edge="1">
          <mxGeometry relative="1" as="geometry">
            <mxPoint x="590" y="430" as="sourcePoint" />
            <mxPoint x="720" y="480" as="targetPoint" />
          </mxGeometry>
        </mxCell>
        <mxCell id="mzZ4RESGsa3rJltDZsZV-113" value="" style="endArrow=none;html=1;rounded=0;entryX=1;entryY=0;entryDx=0;entryDy=0;exitX=0;exitY=1;exitDx=0;exitDy=0;" parent="1" source="mzZ4RESGsa3rJltDZsZV-38" target="mzZ4RESGsa3rJltDZsZV-103" edge="1">
          <mxGeometry relative="1" as="geometry">
            <mxPoint x="294" y="332.5" as="sourcePoint" />
            <mxPoint x="490" y="442.5" as="targetPoint" />
          </mxGeometry>
        </mxCell>
        <mxCell id="mzZ4RESGsa3rJltDZsZV-114" value="" style="endArrow=none;html=1;rounded=0;entryX=1;entryY=0.5;entryDx=0;entryDy=0;exitX=0;exitY=0.5;exitDx=0;exitDy=0;" parent="1" source="mzZ4RESGsa3rJltDZsZV-38" target="mzZ4RESGsa3rJltDZsZV-105" edge="1">
          <mxGeometry relative="1" as="geometry">
            <mxPoint x="290" y="332.5" as="sourcePoint" />
            <mxPoint x="275" y="463.5" as="targetPoint" />
          </mxGeometry>
        </mxCell>
        <mxCell id="mzZ4RESGsa3rJltDZsZV-115" value="" style="endArrow=none;html=1;rounded=0;entryX=1;entryY=0.5;entryDx=0;entryDy=0;exitX=0;exitY=0;exitDx=0;exitDy=0;" parent="1" source="mzZ4RESGsa3rJltDZsZV-38" target="mzZ4RESGsa3rJltDZsZV-104" edge="1">
          <mxGeometry relative="1" as="geometry">
            <mxPoint x="290" y="332.5" as="sourcePoint" />
            <mxPoint x="285" y="473.5" as="targetPoint" />
          </mxGeometry>
        </mxCell>
        <mxCell id="mzZ4RESGsa3rJltDZsZV-116" value="LivingStyle" style="swimlane;childLayout=stackLayout;horizontal=1;startSize=50;horizontalStack=0;rounded=1;fontSize=14;fontStyle=0;strokeWidth=2;resizeParent=0;resizeLast=1;shadow=0;dashed=0;align=center;arcSize=4;whiteSpace=wrap;html=1;" parent="1" vertex="1">
          <mxGeometry x="188" y="920" width="214" height="150" as="geometry" />
        </mxCell>
        <mxCell id="mzZ4RESGsa3rJltDZsZV-120" value="" style="shape=table;startSize=0;container=1;collapsible=1;childLayout=tableLayout;fixedRows=1;rowLines=0;fontStyle=0;align=center;resizeLast=1;strokeColor=none;fillColor=none;collapsible=0;" parent="mzZ4RESGsa3rJltDZsZV-116" vertex="1">
          <mxGeometry y="50" width="214" height="30" as="geometry" />
        </mxCell>
        <mxCell id="mzZ4RESGsa3rJltDZsZV-121" value="" style="shape=tableRow;horizontal=0;startSize=0;swimlaneHead=0;swimlaneBody=0;fillColor=none;collapsible=0;dropTarget=0;points=[[0,0.5],[1,0.5]];portConstraint=eastwest;top=0;left=0;right=0;bottom=1;" parent="mzZ4RESGsa3rJltDZsZV-120" vertex="1">
          <mxGeometry width="214" height="30" as="geometry" />
        </mxCell>
        <mxCell id="mzZ4RESGsa3rJltDZsZV-122" value="PK" style="shape=partialRectangle;connectable=0;fillColor=none;top=0;left=0;bottom=0;right=0;fontStyle=1;overflow=hidden;whiteSpace=wrap;html=1;" parent="mzZ4RESGsa3rJltDZsZV-121" vertex="1">
          <mxGeometry width="30" height="30" as="geometry">
            <mxRectangle width="30" height="30" as="alternateBounds" />
          </mxGeometry>
        </mxCell>
        <mxCell id="mzZ4RESGsa3rJltDZsZV-123" value="LivingStyleID, INT" style="shape=partialRectangle;connectable=0;fillColor=none;top=0;left=0;bottom=0;right=0;align=left;spacingLeft=6;fontStyle=5;overflow=hidden;whiteSpace=wrap;html=1;" parent="mzZ4RESGsa3rJltDZsZV-121" vertex="1">
          <mxGeometry x="30" width="184" height="30" as="geometry">
            <mxRectangle width="184" height="30" as="alternateBounds" />
          </mxGeometry>
        </mxCell>
        <mxCell id="mzZ4RESGsa3rJltDZsZV-117" value="Name, NOT NULL, CHAR(60)&lt;div&gt;Description, VARCHAR(65535)&lt;br&gt;&lt;/div&gt;" style="align=left;strokeColor=none;fillColor=none;spacingLeft=4;fontSize=12;verticalAlign=top;resizable=0;rotatable=0;part=1;html=1;" parent="mzZ4RESGsa3rJltDZsZV-116" vertex="1">
          <mxGeometry y="80" width="214" height="70" as="geometry" />
        </mxCell>
        <mxCell id="mzZ4RESGsa3rJltDZsZV-118" value="LivingAreas" style="swimlane;childLayout=stackLayout;horizontal=1;startSize=50;horizontalStack=0;rounded=1;fontSize=14;fontStyle=0;strokeWidth=2;resizeParent=0;resizeLast=1;shadow=0;dashed=0;align=center;arcSize=4;whiteSpace=wrap;html=1;" parent="1" vertex="1">
          <mxGeometry x="440" y="1080" width="190" height="150" as="geometry" />
        </mxCell>
        <mxCell id="mzZ4RESGsa3rJltDZsZV-124" value="" style="shape=table;startSize=0;container=1;collapsible=1;childLayout=tableLayout;fixedRows=1;rowLines=0;fontStyle=0;align=center;resizeLast=1;strokeColor=none;fillColor=none;collapsible=0;" parent="mzZ4RESGsa3rJltDZsZV-118" vertex="1">
          <mxGeometry y="50" width="190" height="30" as="geometry" />
        </mxCell>
        <mxCell id="mzZ4RESGsa3rJltDZsZV-125" value="" style="shape=tableRow;horizontal=0;startSize=0;swimlaneHead=0;swimlaneBody=0;fillColor=none;collapsible=0;dropTarget=0;points=[[0,0.5],[1,0.5]];portConstraint=eastwest;top=0;left=0;right=0;bottom=1;" parent="mzZ4RESGsa3rJltDZsZV-124" vertex="1">
          <mxGeometry width="190" height="30" as="geometry" />
        </mxCell>
        <mxCell id="mzZ4RESGsa3rJltDZsZV-126" value="PK" style="shape=partialRectangle;connectable=0;fillColor=none;top=0;left=0;bottom=0;right=0;fontStyle=1;overflow=hidden;whiteSpace=wrap;html=1;" parent="mzZ4RESGsa3rJltDZsZV-125" vertex="1">
          <mxGeometry width="30" height="30" as="geometry">
            <mxRectangle width="30" height="30" as="alternateBounds" />
          </mxGeometry>
        </mxCell>
        <mxCell id="mzZ4RESGsa3rJltDZsZV-127" value="LivingAreaID, INT" style="shape=partialRectangle;connectable=0;fillColor=none;top=0;left=0;bottom=0;right=0;align=left;spacingLeft=6;fontStyle=5;overflow=hidden;whiteSpace=wrap;html=1;" parent="mzZ4RESGsa3rJltDZsZV-125" vertex="1">
          <mxGeometry x="30" width="160" height="30" as="geometry">
            <mxRectangle width="160" height="30" as="alternateBounds" />
          </mxGeometry>
        </mxCell>
        <mxCell id="mzZ4RESGsa3rJltDZsZV-119" value="Name, NOT NULL, CHAR(80)&lt;br&gt;Description, VARCHAR(65535)&lt;div&gt;&lt;br/&gt;&lt;/div&gt;" style="align=left;strokeColor=none;fillColor=none;spacingLeft=4;fontSize=12;verticalAlign=top;resizable=0;rotatable=0;part=1;html=1;" parent="mzZ4RESGsa3rJltDZsZV-118" vertex="1">
          <mxGeometry y="80" width="190" height="70" as="geometry" />
        </mxCell>
        <mxCell id="mzZ4RESGsa3rJltDZsZV-130" value="" style="endArrow=none;html=1;rounded=0;exitX=0.75;exitY=0;exitDx=0;exitDy=0;entryX=0.5;entryY=1;entryDx=0;entryDy=0;" parent="1" source="mzZ4RESGsa3rJltDZsZV-116" target="mzZ4RESGsa3rJltDZsZV-89" edge="1">
          <mxGeometry relative="1" as="geometry">
            <mxPoint x="350" y="950" as="sourcePoint" />
            <mxPoint x="500" y="910" as="targetPoint" />
          </mxGeometry>
        </mxCell>
        <mxCell id="mzZ4RESGsa3rJltDZsZV-131" value="Morbus" style="swimlane;childLayout=stackLayout;horizontal=1;startSize=50;horizontalStack=0;rounded=1;fontSize=14;fontStyle=0;strokeWidth=2;resizeParent=0;resizeLast=1;shadow=0;dashed=0;align=center;arcSize=4;whiteSpace=wrap;html=1;" parent="1" vertex="1">
          <mxGeometry x="30" y="680" width="176" height="160" as="geometry" />
        </mxCell>
        <mxCell id="mzZ4RESGsa3rJltDZsZV-132" value="" style="shape=table;startSize=0;container=1;collapsible=1;childLayout=tableLayout;fixedRows=1;rowLines=0;fontStyle=0;align=center;resizeLast=1;strokeColor=none;fillColor=none;collapsible=0;" parent="mzZ4RESGsa3rJltDZsZV-131" vertex="1">
          <mxGeometry y="50" width="176" height="30" as="geometry" />
        </mxCell>
        <mxCell id="mzZ4RESGsa3rJltDZsZV-133" value="" style="shape=tableRow;horizontal=0;startSize=0;swimlaneHead=0;swimlaneBody=0;fillColor=none;collapsible=0;dropTarget=0;points=[[0,0.5],[1,0.5]];portConstraint=eastwest;top=0;left=0;right=0;bottom=1;" parent="mzZ4RESGsa3rJltDZsZV-132" vertex="1">
          <mxGeometry width="176" height="30" as="geometry" />
        </mxCell>
        <mxCell id="mzZ4RESGsa3rJltDZsZV-134" value="PK" style="shape=partialRectangle;connectable=0;fillColor=none;top=0;left=0;bottom=0;right=0;fontStyle=1;overflow=hidden;whiteSpace=wrap;html=1;" parent="mzZ4RESGsa3rJltDZsZV-133" vertex="1">
          <mxGeometry width="30" height="30" as="geometry">
            <mxRectangle width="30" height="30" as="alternateBounds" />
          </mxGeometry>
        </mxCell>
        <mxCell id="mzZ4RESGsa3rJltDZsZV-135" value="MorbusID, INT" style="shape=partialRectangle;connectable=0;fillColor=none;top=0;left=0;bottom=0;right=0;align=left;spacingLeft=6;fontStyle=5;overflow=hidden;whiteSpace=wrap;html=1;" parent="mzZ4RESGsa3rJltDZsZV-133" vertex="1">
          <mxGeometry x="30" width="146" height="30" as="geometry">
            <mxRectangle width="146" height="30" as="alternateBounds" />
          </mxGeometry>
        </mxCell>
        <mxCell id="mzZ4RESGsa3rJltDZsZV-140" value="&lt;u&gt;NAME CHAR(40) UNIQUE&lt;br&gt;NOT NULL&lt;/u&gt;&lt;br&gt;&lt;br&gt;Descripton, VARCHAR(65535)&lt;br&gt;Symptons, VARCHAR(65535)&lt;div&gt;&lt;br&gt;&lt;/div&gt;&lt;div&gt;&lt;br&gt;&lt;/div&gt;" style="align=left;strokeColor=none;fillColor=none;spacingLeft=4;fontSize=12;verticalAlign=top;resizable=0;rotatable=0;part=1;html=1;" parent="mzZ4RESGsa3rJltDZsZV-131" vertex="1">
          <mxGeometry y="80" width="176" height="80" as="geometry" />
        </mxCell>
        <mxCell id="Giboo8YyRQcF9wb1y7rc-25" style="edgeStyle=orthogonalEdgeStyle;rounded=0;orthogonalLoop=1;jettySize=auto;html=1;exitX=0.5;exitY=1;exitDx=0;exitDy=0;" parent="mzZ4RESGsa3rJltDZsZV-131" source="mzZ4RESGsa3rJltDZsZV-140" target="mzZ4RESGsa3rJltDZsZV-140" edge="1">
          <mxGeometry relative="1" as="geometry" />
        </mxCell>
        <mxCell id="mzZ4RESGsa3rJltDZsZV-181" value="Organism Type" style="whiteSpace=wrap;html=1;align=center;" parent="1" vertex="1">
          <mxGeometry x="180" y="180" width="100" height="40" as="geometry" />
        </mxCell>
        <mxCell id="mzZ4RESGsa3rJltDZsZV-184" value="" style="endArrow=none;html=1;rounded=0;exitX=1;exitY=0.5;exitDx=0;exitDy=0;entryX=0;entryY=0.5;entryDx=0;entryDy=0;" parent="1" target="7UcNqY1riqauI8HsNrBE-2" edge="1">
          <mxGeometry relative="1" as="geometry">
            <mxPoint x="420" y="219.9999999999999" as="sourcePoint" />
            <mxPoint x="470" y="220" as="targetPoint" />
          </mxGeometry>
        </mxCell>
        <mxCell id="mzZ4RESGsa3rJltDZsZV-185" value="(0,N)" style="resizable=0;html=1;whiteSpace=wrap;align=right;verticalAlign=bottom;" parent="mzZ4RESGsa3rJltDZsZV-184" connectable="0" vertex="1">
          <mxGeometry x="1" relative="1" as="geometry">
            <mxPoint x="-17" y="20" as="offset" />
          </mxGeometry>
        </mxCell>
        <mxCell id="mzZ4RESGsa3rJltDZsZV-186" value="" style="endArrow=none;html=1;rounded=0;exitX=1;exitY=0.5;exitDx=0;exitDy=0;entryX=0;entryY=0.5;entryDx=0;entryDy=0;" parent="1" source="mzZ4RESGsa3rJltDZsZV-181" edge="1">
          <mxGeometry relative="1" as="geometry">
            <mxPoint x="160" y="260" as="sourcePoint" />
            <mxPoint x="310" y="219.9999999999999" as="targetPoint" />
          </mxGeometry>
        </mxCell>
        <mxCell id="mzZ4RESGsa3rJltDZsZV-187" value="1" style="resizable=0;html=1;whiteSpace=wrap;align=right;verticalAlign=bottom;" parent="mzZ4RESGsa3rJltDZsZV-186" connectable="0" vertex="1">
          <mxGeometry x="1" relative="1" as="geometry">
            <mxPoint x="-10" y="-10" as="offset" />
          </mxGeometry>
        </mxCell>
        <mxCell id="mzZ4RESGsa3rJltDZsZV-189" value="" style="endArrow=none;html=1;rounded=0;exitX=1;exitY=0.5;exitDx=0;exitDy=0;entryX=0;entryY=0.5;entryDx=0;entryDy=0;" parent="1" source="mzZ4RESGsa3rJltDZsZV-190" target="mzZ4RESGsa3rJltDZsZV-181" edge="1">
          <mxGeometry relative="1" as="geometry">
            <mxPoint x="160" y="210" as="sourcePoint" />
            <mxPoint x="280" y="260" as="targetPoint" />
          </mxGeometry>
        </mxCell>
        <mxCell id="mzZ4RESGsa3rJltDZsZV-190" value="Name" style="ellipse;whiteSpace=wrap;html=1;align=center;fontStyle=4;" parent="1" vertex="1">
          <mxGeometry x="50" y="180" width="100" height="40" as="geometry" />
        </mxCell>
        <mxCell id="mzZ4RESGsa3rJltDZsZV-204" value="OrganismType" style="swimlane;childLayout=stackLayout;horizontal=1;startSize=50;horizontalStack=0;rounded=1;fontSize=14;fontStyle=0;strokeWidth=2;resizeParent=0;resizeLast=1;shadow=0;dashed=0;align=center;arcSize=4;whiteSpace=wrap;html=1;" parent="1" vertex="1">
          <mxGeometry x="690" y="665" width="214" height="150" as="geometry" />
        </mxCell>
        <mxCell id="mzZ4RESGsa3rJltDZsZV-216" value="" style="shape=table;startSize=0;container=1;collapsible=1;childLayout=tableLayout;fixedRows=1;rowLines=0;fontStyle=0;align=center;resizeLast=1;strokeColor=none;fillColor=none;collapsible=0;" parent="mzZ4RESGsa3rJltDZsZV-204" vertex="1">
          <mxGeometry y="50" width="214" height="30" as="geometry" />
        </mxCell>
        <mxCell id="mzZ4RESGsa3rJltDZsZV-217" value="" style="shape=tableRow;horizontal=0;startSize=0;swimlaneHead=0;swimlaneBody=0;fillColor=none;collapsible=0;dropTarget=0;points=[[0,0.5],[1,0.5]];portConstraint=eastwest;top=0;left=0;right=0;bottom=1;" parent="mzZ4RESGsa3rJltDZsZV-216" vertex="1">
          <mxGeometry width="214" height="30" as="geometry" />
        </mxCell>
        <mxCell id="mzZ4RESGsa3rJltDZsZV-218" value="PK" style="shape=partialRectangle;connectable=0;fillColor=none;top=0;left=0;bottom=0;right=0;fontStyle=1;overflow=hidden;whiteSpace=wrap;html=1;" parent="mzZ4RESGsa3rJltDZsZV-217" vertex="1">
          <mxGeometry width="30" height="30" as="geometry">
            <mxRectangle width="30" height="30" as="alternateBounds" />
          </mxGeometry>
        </mxCell>
        <mxCell id="mzZ4RESGsa3rJltDZsZV-219" value="OrgTypeID, INT" style="shape=partialRectangle;connectable=0;fillColor=none;top=0;left=0;bottom=0;right=0;align=left;spacingLeft=6;fontStyle=5;overflow=hidden;whiteSpace=wrap;html=1;" parent="mzZ4RESGsa3rJltDZsZV-217" vertex="1">
          <mxGeometry x="30" width="184" height="30" as="geometry">
            <mxRectangle width="184" height="30" as="alternateBounds" />
          </mxGeometry>
        </mxCell>
        <mxCell id="mzZ4RESGsa3rJltDZsZV-209" value="Name, NOT NULL, CHAR(60)&lt;div&gt;Description, VARCHAR(65535)&lt;br&gt;&lt;/div&gt;" style="align=left;strokeColor=none;fillColor=none;spacingLeft=4;fontSize=12;verticalAlign=top;resizable=0;rotatable=0;part=1;html=1;" parent="mzZ4RESGsa3rJltDZsZV-204" vertex="1">
          <mxGeometry y="80" width="214" height="70" as="geometry" />
        </mxCell>
        <mxCell id="mzZ4RESGsa3rJltDZsZV-211" value="" style="endArrow=none;html=1;rounded=0;entryX=-0.002;entryY=0.327;entryDx=0;entryDy=0;entryPerimeter=0;" parent="1" source="mzZ4RESGsa3rJltDZsZV-88" target="mzZ4RESGsa3rJltDZsZV-209" edge="1">
          <mxGeometry relative="1" as="geometry">
            <mxPoint x="660" y="750" as="sourcePoint" />
            <mxPoint x="820" y="750" as="targetPoint" />
          </mxGeometry>
        </mxCell>
        <mxCell id="mzZ4RESGsa3rJltDZsZV-212" value="Description" style="ellipse;whiteSpace=wrap;html=1;align=center;" parent="1" vertex="1">
          <mxGeometry x="90" y="240" width="100" height="40" as="geometry" />
        </mxCell>
        <mxCell id="mzZ4RESGsa3rJltDZsZV-213" value="" style="endArrow=none;html=1;rounded=0;exitX=1;exitY=0.5;exitDx=0;exitDy=0;entryX=0.5;entryY=1;entryDx=0;entryDy=0;" parent="1" source="mzZ4RESGsa3rJltDZsZV-212" target="mzZ4RESGsa3rJltDZsZV-181" edge="1">
          <mxGeometry relative="1" as="geometry">
            <mxPoint x="210" y="270" as="sourcePoint" />
            <mxPoint x="370" y="270" as="targetPoint" />
          </mxGeometry>
        </mxCell>
        <mxCell id="mzZ4RESGsa3rJltDZsZV-214" value="OrgTypeID" style="ellipse;whiteSpace=wrap;html=1;align=center;fontStyle=4;" parent="1" vertex="1">
          <mxGeometry x="180" y="280" width="100" height="40" as="geometry" />
        </mxCell>
        <mxCell id="mzZ4RESGsa3rJltDZsZV-215" value="" style="endArrow=none;html=1;rounded=0;exitX=0.5;exitY=1;exitDx=0;exitDy=0;entryX=0.5;entryY=0;entryDx=0;entryDy=0;" parent="1" source="mzZ4RESGsa3rJltDZsZV-181" target="mzZ4RESGsa3rJltDZsZV-214" edge="1">
          <mxGeometry relative="1" as="geometry">
            <mxPoint x="230" y="250" as="sourcePoint" />
            <mxPoint x="390" y="250" as="targetPoint" />
          </mxGeometry>
        </mxCell>
        <mxCell id="mzZ4RESGsa3rJltDZsZV-228" value="Soul" style="whiteSpace=wrap;html=1;align=center;" parent="1" vertex="1">
          <mxGeometry x="710" y="280" width="100" height="40" as="geometry" />
        </mxCell>
        <mxCell id="mzZ4RESGsa3rJltDZsZV-231" value="SoulID" style="ellipse;whiteSpace=wrap;html=1;align=center;fontStyle=4;" parent="1" vertex="1">
          <mxGeometry x="830" y="230" width="100" height="40" as="geometry" />
        </mxCell>
        <mxCell id="mzZ4RESGsa3rJltDZsZV-232" value="" style="endArrow=none;html=1;rounded=0;exitX=1;exitY=0.5;exitDx=0;exitDy=0;entryX=0;entryY=1;entryDx=0;entryDy=0;" parent="1" source="mzZ4RESGsa3rJltDZsZV-228" target="mzZ4RESGsa3rJltDZsZV-231" edge="1">
          <mxGeometry relative="1" as="geometry">
            <mxPoint x="890" y="310" as="sourcePoint" />
            <mxPoint x="1050" y="310" as="targetPoint" />
          </mxGeometry>
        </mxCell>
        <mxCell id="mzZ4RESGsa3rJltDZsZV-234" value="" style="endArrow=none;html=1;rounded=0;exitX=1;exitY=0.5;exitDx=0;exitDy=0;entryX=0;entryY=0.5;entryDx=0;entryDy=0;" parent="1" target="7UcNqY1riqauI8HsNrBE-1" edge="1">
          <mxGeometry relative="1" as="geometry">
            <mxPoint x="570" y="220" as="sourcePoint" />
            <mxPoint x="660" y="220" as="targetPoint" />
          </mxGeometry>
        </mxCell>
        <mxCell id="mzZ4RESGsa3rJltDZsZV-235" value="1" style="resizable=0;html=1;whiteSpace=wrap;align=right;verticalAlign=bottom;" parent="mzZ4RESGsa3rJltDZsZV-234" connectable="0" vertex="1">
          <mxGeometry x="1" relative="1" as="geometry">
            <mxPoint x="-10" as="offset" />
          </mxGeometry>
        </mxCell>
        <mxCell id="mzZ4RESGsa3rJltDZsZV-238" value="" style="endArrow=none;html=1;rounded=0;entryX=1;entryY=1;entryDx=0;entryDy=0;exitX=0.5;exitY=0;exitDx=0;exitDy=0;" parent="1" source="mzZ4RESGsa3rJltDZsZV-228" target="7UcNqY1riqauI8HsNrBE-1" edge="1">
          <mxGeometry relative="1" as="geometry">
            <mxPoint x="770" y="150" as="sourcePoint" />
            <mxPoint x="720" y="250" as="targetPoint" />
          </mxGeometry>
        </mxCell>
        <mxCell id="mzZ4RESGsa3rJltDZsZV-239" value="1" style="resizable=0;html=1;whiteSpace=wrap;align=right;verticalAlign=bottom;" parent="mzZ4RESGsa3rJltDZsZV-238" connectable="0" vertex="1">
          <mxGeometry x="1" relative="1" as="geometry">
            <mxPoint x="20" y="25" as="offset" />
          </mxGeometry>
        </mxCell>
        <mxCell id="mzZ4RESGsa3rJltDZsZV-250" value="Soul" style="swimlane;childLayout=stackLayout;horizontal=1;startSize=50;horizontalStack=0;rounded=1;fontSize=14;fontStyle=0;strokeWidth=2;resizeParent=0;resizeLast=1;shadow=0;dashed=0;align=center;arcSize=4;whiteSpace=wrap;html=1;" parent="1" vertex="1">
          <mxGeometry x="690" y="840" width="214" height="150" as="geometry" />
        </mxCell>
        <mxCell id="mzZ4RESGsa3rJltDZsZV-251" value="" style="shape=table;startSize=0;container=1;collapsible=1;childLayout=tableLayout;fixedRows=1;rowLines=0;fontStyle=0;align=center;resizeLast=1;strokeColor=none;fillColor=none;collapsible=0;" parent="mzZ4RESGsa3rJltDZsZV-250" vertex="1">
          <mxGeometry y="50" width="214" height="30" as="geometry" />
        </mxCell>
        <mxCell id="mzZ4RESGsa3rJltDZsZV-252" value="" style="shape=tableRow;horizontal=0;startSize=0;swimlaneHead=0;swimlaneBody=0;fillColor=none;collapsible=0;dropTarget=0;points=[[0,0.5],[1,0.5]];portConstraint=eastwest;top=0;left=0;right=0;bottom=1;" parent="mzZ4RESGsa3rJltDZsZV-251" vertex="1">
          <mxGeometry width="214" height="30" as="geometry" />
        </mxCell>
        <mxCell id="mzZ4RESGsa3rJltDZsZV-253" value="PK" style="shape=partialRectangle;connectable=0;fillColor=none;top=0;left=0;bottom=0;right=0;fontStyle=1;overflow=hidden;whiteSpace=wrap;html=1;" parent="mzZ4RESGsa3rJltDZsZV-252" vertex="1">
          <mxGeometry width="30" height="30" as="geometry">
            <mxRectangle width="30" height="30" as="alternateBounds" />
          </mxGeometry>
        </mxCell>
        <mxCell id="mzZ4RESGsa3rJltDZsZV-254" value="SoulID, INT" style="shape=partialRectangle;connectable=0;fillColor=none;top=0;left=0;bottom=0;right=0;align=left;spacingLeft=6;fontStyle=5;overflow=hidden;whiteSpace=wrap;html=1;" parent="mzZ4RESGsa3rJltDZsZV-252" vertex="1">
          <mxGeometry x="30" width="184" height="30" as="geometry">
            <mxRectangle width="184" height="30" as="alternateBounds" />
          </mxGeometry>
        </mxCell>
        <mxCell id="mzZ4RESGsa3rJltDZsZV-255" value="FK OrgID, INT&lt;br&gt;NaturalSkills, VARCHAR(65535)&lt;br&gt;SkillsLimits, VARCHAR(65535)&lt;br&gt;Stats, VARCHAR(65535)" style="align=left;strokeColor=none;fillColor=none;spacingLeft=4;fontSize=12;verticalAlign=top;resizable=0;rotatable=0;part=1;html=1;" parent="mzZ4RESGsa3rJltDZsZV-250" vertex="1">
          <mxGeometry y="80" width="214" height="70" as="geometry" />
        </mxCell>
        <mxCell id="mzZ4RESGsa3rJltDZsZV-257" value="" style="endArrow=none;html=1;rounded=0;exitX=1;exitY=0.75;exitDx=0;exitDy=0;entryX=0;entryY=0;entryDx=0;entryDy=0;" parent="1" source="mzZ4RESGsa3rJltDZsZV-89" target="mzZ4RESGsa3rJltDZsZV-250" edge="1">
          <mxGeometry relative="1" as="geometry">
            <mxPoint x="760" y="900" as="sourcePoint" />
            <mxPoint x="920" y="900" as="targetPoint" />
          </mxGeometry>
        </mxCell>
        <mxCell id="7UcNqY1riqauI8HsNrBE-1" value="Has" style="shape=rhombus;double=1;perimeter=rhombusPerimeter;whiteSpace=wrap;html=1;align=center;" parent="1" vertex="1">
          <mxGeometry x="660" y="190" width="120" height="60" as="geometry" />
        </mxCell>
        <mxCell id="7UcNqY1riqauI8HsNrBE-2" value="Organism" style="shape=ext;margin=3;double=1;whiteSpace=wrap;html=1;align=center;" parent="1" vertex="1">
          <mxGeometry x="472" y="200" width="100" height="40" as="geometry" />
        </mxCell>
        <mxCell id="7UcNqY1riqauI8HsNrBE-3" value="IsType" style="shape=rhombus;double=1;perimeter=rhombusPerimeter;whiteSpace=wrap;html=1;align=center;" parent="1" vertex="1">
          <mxGeometry x="310" y="190" width="120" height="60" as="geometry" />
        </mxCell>
        <mxCell id="lUp3vJ-Ia6TG-D5YU0Yd-1" value="&lt;span style=&quot;border-bottom: 1px dotted&quot;&gt;OrgID&lt;/span&gt;" style="ellipse;whiteSpace=wrap;html=1;align=center;" parent="1" vertex="1">
          <mxGeometry x="600" y="260" width="100" height="40" as="geometry" />
        </mxCell>
        <mxCell id="lUp3vJ-Ia6TG-D5YU0Yd-2" value="&lt;span style=&quot;border-bottom: 1px dotted&quot;&gt;Name&lt;/span&gt;" style="ellipse;whiteSpace=wrap;html=1;align=center;" parent="1" vertex="1">
          <mxGeometry x="600" y="140" width="100" height="40" as="geometry" />
        </mxCell>
        <mxCell id="vS-z5v9-gaswFDZ_zj_J-4" value="" style="endArrow=none;html=1;rounded=0;entryX=0;entryY=0;entryDx=0;entryDy=0;" parent="1" target="vS-z5v9-gaswFDZ_zj_J-6" edge="1">
          <mxGeometry relative="1" as="geometry">
            <mxPoint x="810" y="300" as="sourcePoint" />
            <mxPoint x="844.6446609406728" y="338.85786437626916" as="targetPoint" />
          </mxGeometry>
        </mxCell>
        <mxCell id="vS-z5v9-gaswFDZ_zj_J-5" value="" style="endArrow=none;html=1;rounded=0;exitX=1;exitY=0.5;exitDx=0;exitDy=0;entryX=0;entryY=0.5;entryDx=0;entryDy=0;" parent="1" source="mzZ4RESGsa3rJltDZsZV-228" target="vS-z5v9-gaswFDZ_zj_J-7" edge="1">
          <mxGeometry relative="1" as="geometry">
            <mxPoint x="970" y="320" as="sourcePoint" />
            <mxPoint x="850" y="300" as="targetPoint" />
          </mxGeometry>
        </mxCell>
        <mxCell id="vS-z5v9-gaswFDZ_zj_J-6" value="Natural Skills" style="ellipse;shape=doubleEllipse;margin=3;whiteSpace=wrap;html=1;align=center;" parent="1" vertex="1">
          <mxGeometry x="810" y="335" width="100" height="40" as="geometry" />
        </mxCell>
        <mxCell id="vS-z5v9-gaswFDZ_zj_J-7" value="Skill limits" style="ellipse;shape=doubleEllipse;margin=3;whiteSpace=wrap;html=1;align=center;" parent="1" vertex="1">
          <mxGeometry x="857" y="280" width="100" height="40" as="geometry" />
        </mxCell>
        <mxCell id="vS-z5v9-gaswFDZ_zj_J-8" value="" style="endArrow=none;html=1;rounded=0;exitX=0.5;exitY=1;exitDx=0;exitDy=0;" parent="1" source="mzZ4RESGsa3rJltDZsZV-228" edge="1">
          <mxGeometry relative="1" as="geometry">
            <mxPoint x="760" y="400" as="sourcePoint" />
            <mxPoint x="760" y="350" as="targetPoint" />
          </mxGeometry>
        </mxCell>
        <mxCell id="Giboo8YyRQcF9wb1y7rc-1" value="OrgToLA" style="swimlane;childLayout=stackLayout;horizontal=1;startSize=50;horizontalStack=0;rounded=1;fontSize=14;fontStyle=0;strokeWidth=2;resizeParent=0;resizeLast=1;shadow=0;dashed=0;align=center;arcSize=4;whiteSpace=wrap;html=1;" parent="1" vertex="1">
          <mxGeometry x="440" y="940" width="190" height="120" as="geometry" />
        </mxCell>
        <mxCell id="otO6k8b_UlA6O-hggI45-5" value="" style="shape=table;startSize=0;container=1;collapsible=1;childLayout=tableLayout;fixedRows=1;rowLines=0;fontStyle=0;align=center;resizeLast=1;strokeColor=none;fillColor=none;collapsible=0;" vertex="1" parent="Giboo8YyRQcF9wb1y7rc-1">
          <mxGeometry y="50" width="190" height="70" as="geometry" />
        </mxCell>
        <mxCell id="otO6k8b_UlA6O-hggI45-6" value="" style="shape=tableRow;horizontal=0;startSize=0;swimlaneHead=0;swimlaneBody=0;fillColor=none;collapsible=0;dropTarget=0;points=[[0,0.5],[1,0.5]];portConstraint=eastwest;top=0;left=0;right=0;bottom=0;" vertex="1" parent="otO6k8b_UlA6O-hggI45-5">
          <mxGeometry width="190" height="30" as="geometry" />
        </mxCell>
        <mxCell id="otO6k8b_UlA6O-hggI45-7" value="FK" style="shape=partialRectangle;connectable=0;fillColor=none;top=0;left=0;bottom=0;right=0;fontStyle=0;overflow=hidden;whiteSpace=wrap;html=1;" vertex="1" parent="otO6k8b_UlA6O-hggI45-6">
          <mxGeometry width="30" height="30" as="geometry">
            <mxRectangle width="30" height="30" as="alternateBounds" />
          </mxGeometry>
        </mxCell>
        <mxCell id="otO6k8b_UlA6O-hggI45-8" value="OrgID NOT NULL" style="shape=partialRectangle;connectable=0;fillColor=none;top=0;left=0;bottom=0;right=0;align=left;spacingLeft=6;fontStyle=0;overflow=hidden;whiteSpace=wrap;html=1;" vertex="1" parent="otO6k8b_UlA6O-hggI45-6">
          <mxGeometry x="30" width="160" height="30" as="geometry">
            <mxRectangle width="160" height="30" as="alternateBounds" />
          </mxGeometry>
        </mxCell>
        <mxCell id="otO6k8b_UlA6O-hggI45-12" value="" style="shape=tableRow;horizontal=0;startSize=0;swimlaneHead=0;swimlaneBody=0;fillColor=none;collapsible=0;dropTarget=0;points=[[0,0.5],[1,0.5]];portConstraint=eastwest;top=0;left=0;right=0;bottom=0;" vertex="1" parent="otO6k8b_UlA6O-hggI45-5">
          <mxGeometry y="30" width="190" height="30" as="geometry" />
        </mxCell>
        <mxCell id="otO6k8b_UlA6O-hggI45-13" value="FK" style="shape=partialRectangle;connectable=0;fillColor=none;top=0;left=0;bottom=0;right=0;fontStyle=0;overflow=hidden;whiteSpace=wrap;html=1;" vertex="1" parent="otO6k8b_UlA6O-hggI45-12">
          <mxGeometry width="30" height="30" as="geometry">
            <mxRectangle width="30" height="30" as="alternateBounds" />
          </mxGeometry>
        </mxCell>
        <mxCell id="otO6k8b_UlA6O-hggI45-14" value="LivingAreaID NOT NULL" style="shape=partialRectangle;connectable=0;fillColor=none;top=0;left=0;bottom=0;right=0;align=left;spacingLeft=6;fontStyle=0;overflow=hidden;whiteSpace=wrap;html=1;" vertex="1" parent="otO6k8b_UlA6O-hggI45-12">
          <mxGeometry x="30" width="160" height="30" as="geometry">
            <mxRectangle width="160" height="30" as="alternateBounds" />
          </mxGeometry>
        </mxCell>
        <mxCell id="Giboo8YyRQcF9wb1y7rc-7" value="Infection" style="swimlane;childLayout=stackLayout;horizontal=1;startSize=50;horizontalStack=0;rounded=1;fontSize=14;fontStyle=0;strokeWidth=2;resizeParent=0;resizeLast=1;shadow=0;dashed=0;align=center;arcSize=4;whiteSpace=wrap;html=1;" parent="1" vertex="1">
          <mxGeometry x="230" y="702.5" width="176" height="125" as="geometry" />
        </mxCell>
        <mxCell id="otO6k8b_UlA6O-hggI45-1" value="" style="shape=table;startSize=0;container=1;collapsible=1;childLayout=tableLayout;fixedRows=1;rowLines=0;fontStyle=0;align=center;resizeLast=1;strokeColor=none;fillColor=none;collapsible=0;" vertex="1" parent="Giboo8YyRQcF9wb1y7rc-7">
          <mxGeometry y="50" width="176" height="75" as="geometry" />
        </mxCell>
        <mxCell id="otO6k8b_UlA6O-hggI45-2" value="" style="shape=tableRow;horizontal=0;startSize=0;swimlaneHead=0;swimlaneBody=0;fillColor=none;collapsible=0;dropTarget=0;points=[[0,0.5],[1,0.5]];portConstraint=eastwest;top=0;left=0;right=0;bottom=0;" vertex="1" parent="otO6k8b_UlA6O-hggI45-1">
          <mxGeometry width="176" height="30" as="geometry" />
        </mxCell>
        <mxCell id="otO6k8b_UlA6O-hggI45-3" value="FK" style="shape=partialRectangle;connectable=0;fillColor=none;top=0;left=0;bottom=0;right=0;fontStyle=0;overflow=hidden;whiteSpace=wrap;html=1;" vertex="1" parent="otO6k8b_UlA6O-hggI45-2">
          <mxGeometry width="30" height="30" as="geometry">
            <mxRectangle width="30" height="30" as="alternateBounds" />
          </mxGeometry>
        </mxCell>
        <mxCell id="otO6k8b_UlA6O-hggI45-4" value="OrgID NOT NULL" style="shape=partialRectangle;connectable=0;fillColor=none;top=0;left=0;bottom=0;right=0;align=left;spacingLeft=6;fontStyle=0;overflow=hidden;whiteSpace=wrap;html=1;" vertex="1" parent="otO6k8b_UlA6O-hggI45-2">
          <mxGeometry x="30" width="146" height="30" as="geometry">
            <mxRectangle width="146" height="30" as="alternateBounds" />
          </mxGeometry>
        </mxCell>
        <mxCell id="otO6k8b_UlA6O-hggI45-9" value="" style="shape=tableRow;horizontal=0;startSize=0;swimlaneHead=0;swimlaneBody=0;fillColor=none;collapsible=0;dropTarget=0;points=[[0,0.5],[1,0.5]];portConstraint=eastwest;top=0;left=0;right=0;bottom=0;" vertex="1" parent="otO6k8b_UlA6O-hggI45-1">
          <mxGeometry y="30" width="176" height="30" as="geometry" />
        </mxCell>
        <mxCell id="otO6k8b_UlA6O-hggI45-10" value="FK" style="shape=partialRectangle;connectable=0;fillColor=none;top=0;left=0;bottom=0;right=0;fontStyle=0;overflow=hidden;whiteSpace=wrap;html=1;" vertex="1" parent="otO6k8b_UlA6O-hggI45-9">
          <mxGeometry width="30" height="30" as="geometry">
            <mxRectangle width="30" height="30" as="alternateBounds" />
          </mxGeometry>
        </mxCell>
        <mxCell id="otO6k8b_UlA6O-hggI45-11" value="MorbusID NOT NULL" style="shape=partialRectangle;connectable=0;fillColor=none;top=0;left=0;bottom=0;right=0;align=left;spacingLeft=6;fontStyle=0;overflow=hidden;whiteSpace=wrap;html=1;" vertex="1" parent="otO6k8b_UlA6O-hggI45-9">
          <mxGeometry x="30" width="146" height="30" as="geometry">
            <mxRectangle width="146" height="30" as="alternateBounds" />
          </mxGeometry>
        </mxCell>
        <mxCell id="Giboo8YyRQcF9wb1y7rc-21" value="" style="endArrow=none;html=1;rounded=0;exitX=1;exitY=0.5;exitDx=0;exitDy=0;" parent="1" target="mzZ4RESGsa3rJltDZsZV-88" edge="1">
          <mxGeometry relative="1" as="geometry">
            <mxPoint x="406" y="767.5" as="sourcePoint" />
            <mxPoint x="360" y="880" as="targetPoint" />
          </mxGeometry>
        </mxCell>
        <mxCell id="Giboo8YyRQcF9wb1y7rc-22" value="" style="endArrow=none;html=1;rounded=0;exitX=1;exitY=0;exitDx=0;exitDy=0;entryX=0;entryY=0.5;entryDx=0;entryDy=0;" parent="1" source="mzZ4RESGsa3rJltDZsZV-140" edge="1">
          <mxGeometry relative="1" as="geometry">
            <mxPoint x="220" y="900" as="sourcePoint" />
            <mxPoint x="230" y="767.5" as="targetPoint" />
          </mxGeometry>
        </mxCell>
        <mxCell id="Giboo8YyRQcF9wb1y7rc-23" value="" style="endArrow=none;html=1;rounded=0;entryX=0.5;entryY=1;entryDx=0;entryDy=0;exitX=0.5;exitY=0;exitDx=0;exitDy=0;" parent="1" source="mzZ4RESGsa3rJltDZsZV-118" edge="1">
          <mxGeometry relative="1" as="geometry">
            <mxPoint x="320" y="1140" as="sourcePoint" />
            <mxPoint x="535" y="1060" as="targetPoint" />
          </mxGeometry>
        </mxCell>
        <mxCell id="Giboo8YyRQcF9wb1y7rc-24" value="" style="endArrow=none;html=1;rounded=0;entryX=0.5;entryY=1;entryDx=0;entryDy=0;exitX=0.5;exitY=0;exitDx=0;exitDy=0;" parent="1" source="Giboo8YyRQcF9wb1y7rc-1" target="mzZ4RESGsa3rJltDZsZV-89" edge="1">
          <mxGeometry relative="1" as="geometry">
            <mxPoint x="542" y="970" as="sourcePoint" />
            <mxPoint x="530" y="920" as="targetPoint" />
          </mxGeometry>
        </mxCell>
      </root>
    </mxGraphModel>
  </diagram>
</mxfile>
